<?xml version="1.0" encoding="UTF-8"?>
<svg width="172px" height="172px" viewBox="0 0 172 172" version="1.1" xmlns="http://www.w3.org/2000/svg" xmlns:xlink="http://www.w3.org/1999/xlink">
    <!-- Generator: sketchtool 41.2 (35397) - http://www.bohemiancoding.com/sketch -->
    <title>22C34A0A-E2E9-42EA-B7B9-8745F8E5C5DB</title>
    <desc>Created with sketchtool.</desc>
    <defs></defs>
    <g id="Page-1" stroke="none" stroke-width="1" fill="none" fill-rule="evenodd">
        <g id="Desktop_Landing-Screen_FTUE-Sign-Up" transform="translate(-755.000000, -842.000000)">
            <g id="Panel-2" transform="translate(1.000000, 631.000000)">
                <g id="Engaging" transform="translate(754.000000, 211.000000)">
                    <g id="icon---network">
                        <circle id="Oval-3" fill="#0C76BE" cx="86" cy="86" r="86"></circle>
                        <path d="M121.087716,91.0224258 L120.912284,91.0224258 L116.087716,69.4977548 C117.842116,68.6905806 119.070168,66.9865548 119.070168,64.8340903 C119.070168,62.0538065 116.877187,59.8116645 114.157884,59.8116645 C112.491226,59.8116645 111.087716,60.6188387 110.210529,61.8744516 L90.7368516,52.3677161 C90.8245677,51.9192774 90.9122839,51.4708645 90.9122839,51.0224258 C90.9122839,48.2421419 88.7193032,46 86,46 C83.2806968,46 81.0877161,48.2421419 81.0877161,51.0224258 C81.0877161,51.4708645 81.1754323,51.9192774 81.2631484,52.3677161 L61.7894735,61.8744516 C60.9122813,60.6188387 59.5087716,59.8116645 57.8421058,59.8116645 C55.1228077,59.8116645 52.9298245,62.0538065 52.9298245,64.8340903 C52.9298245,66.9865548 54.1578942,68.6905806 55.9122813,69.4977548 L51.0877187,91.0224258 L50.9122813,91.0224258 C48.1929825,91.0224258 46,93.2645677 46,96.0448516 C46,98.8251097 48.1929825,101.067267 50.9122813,101.067267 C51.7017548,101.067267 52.4912284,100.798209 53.1929832,100.439461 L66.7017548,117.659195 C65.9122813,118.556052 65.4736852,119.721972 65.4736852,120.977579 C65.4736852,123.75785 67.6666684,126 70.3859665,126 C72.7543742,126 74.7719226,124.206281 75.210529,121.874441 L96.789471,121.874441 C97.2280774,124.206281 99.1579097,126 101.614039,126 C104.333342,126 106.526323,123.75785 106.526323,120.977579 C106.526323,119.721972 106.087716,118.556052 105.298245,117.659195 L118.807019,100.439461 C119.421058,100.798209 120.210529,101.067267 121.087716,101.067267 C123.807019,101.067267 126,98.8251097 126,96.0448516 C126,93.2645677 123.807019,91.0224258 121.087716,91.0224258 L121.087716,91.0224258 Z M119.157884,91.3811613 C119.070168,91.4708645 118.894735,91.4708645 118.807019,91.5605419 L111.263148,81.964129 L113.894735,69.8564903 L114.157884,69.8564903 L114.333342,69.8564903 L119.157884,91.3811613 L119.157884,91.3811613 Z M101.614039,115.955156 L101.438606,115.955156 L99.5087742,107.614351 L104.245626,105.282514 L101.877187,115.955156 L101.614039,115.955156 L101.614039,115.955156 Z M99.2456258,116.582957 L94.3333419,110.215246 L97.9298323,108.421528 L99.6842065,116.40359 C99.5087742,116.40359 99.4210581,116.493277 99.2456258,116.582957 L99.2456258,116.582957 Z M70.3859665,115.955156 L70.1228077,115.955156 L67.7543871,105.282514 L72.4912258,107.614351 L70.5614039,115.955156 L70.3859665,115.955156 L70.3859665,115.955156 Z M68.0175432,116.582957 L54.5964929,99.2735484 C54.6842116,99.1838452 54.7719303,99.0941677 54.859649,99.0044903 L65.7368439,104.295961 L68.4561419,116.40359 C68.2807019,116.40359 68.1929832,116.493277 68.0175432,116.582957 L68.0175432,116.582957 Z M54.5964929,92.7264516 L61.2631587,84.206271 L62.4035097,89.3184 L54.859649,93.0852129 C54.7719303,92.9058323 54.6842116,92.8161548 54.5964929,92.7264516 L54.5964929,92.7264516 Z M60.2105265,69.3183742 L65.3859665,75.9551484 L62.140351,80.1704 L59.7719303,69.4977548 C59.9473677,69.4080774 60.0350865,69.4080774 60.2105265,69.3183742 L60.2105265,69.3183742 Z M73.3684129,65.7309419 L70.1228077,69.9461935 L62.5789471,66.1793806 C62.5789471,66.0896774 62.6666684,65.9103226 62.6666684,65.7309419 L73.3684129,65.7309419 L73.3684129,65.7309419 Z M83.6315871,55.4170323 C83.8070194,55.5067355 83.8947355,55.5964129 84.0701677,55.5964129 L82.2280774,63.9372129 L76.9649032,63.9372129 L83.6315871,55.4170323 L83.6315871,55.4170323 Z M86,56.0448516 L86.1754323,56.0448516 L88.0175484,63.9372129 L83.9824516,63.9372129 L85.7368516,56.0448516 L86,56.0448516 L86,56.0448516 Z M88.3684129,55.4170323 L94.9473806,63.9372129 L89.7719226,63.9372129 L87.9298323,55.5964129 C88.1052645,55.5964129 88.1929806,55.5067355 88.3684129,55.4170323 L88.3684129,55.4170323 Z M109.333342,65.7309419 C109.333342,65.9103226 109.333342,66.0896774 109.421058,66.1793806 L101.877187,69.9461935 L98.6315871,65.7309419 L109.333342,65.7309419 L109.333342,65.7309419 Z M112.228077,69.4977548 L109.859665,80.1704 L106.614039,75.9551484 L111.789471,69.3183742 C111.964903,69.4080774 112.052619,69.4080774 112.228077,69.4977548 L112.228077,69.4977548 Z M86,77.7488774 L81.4386065,75.5067355 L83.6315871,65.7309419 L88.3684129,65.7309419 L90.5613935,75.5067355 L86,77.7488774 L86,77.7488774 Z M91,77.3004387 L91.7017548,80.5291355 L88.0175484,78.7354323 L91,77.3004387 L91,77.3004387 Z M83.9824516,78.7354323 L80.2982452,80.5291355 L81,77.3004387 L83.9824516,78.7354323 L83.9824516,78.7354323 Z M86,79.7219871 L92.2280774,82.7713032 L93.7193032,89.5874323 L89.4210581,95.1479742 L82.5789419,95.1479742 L78.2806968,89.5874323 L79.7719226,82.7713032 L86,79.7219871 L86,79.7219871 Z M94.2456258,83.7578581 L97.1403613,85.1928258 L95.1228129,87.793729 L94.2456258,83.7578581 L94.2456258,83.7578581 Z M94.9473806,95.1479742 L91.7017548,95.1479742 L94.2456258,91.8296 L94.9473806,95.1479742 L94.9473806,95.1479742 Z M93.7193032,81.5156903 L92.5789419,76.4932645 L101.350865,72.1883355 L104.333342,75.9551484 L98.2806968,83.7578581 L93.7193032,81.5156903 L93.7193032,81.5156903 Z M88.0175484,96.9417032 L86,99.5426065 L83.9824516,96.9417032 L88.0175484,96.9417032 L88.0175484,96.9417032 Z M77.7543742,91.8296 L80.2982452,95.1479742 L77.0526452,95.1479742 L77.7543742,91.8296 L77.7543742,91.8296 Z M76.8771871,87.793729 L74.8596387,85.1928258 L77.7543742,83.7578581 L76.8771871,87.793729 L76.8771871,87.793729 Z M78.2806968,81.5156903 L73.7193032,83.7578581 L67.6666684,75.9551484 L70.6491226,72.1883355 L79.4210581,76.4932645 L78.2806968,81.5156903 L78.2806968,81.5156903 Z M72.0526452,84.5650323 L64.0701755,88.5112 L62.6666684,82.4125677 L66.5263174,77.3901419 L72.0526452,84.5650323 L72.0526452,84.5650323 Z M62.8421058,91.1121032 L63.7192981,95.1479742 L55.7368413,95.1479742 C55.7368413,94.9686194 55.6491226,94.7892387 55.6491226,94.6995613 L62.8421058,91.1121032 L62.8421058,91.1121032 Z M55.7368413,96.9417032 L64.0701755,96.9417032 L65.2105265,102.053812 L55.6491226,97.3901419 C55.6491226,97.2107613 55.7368413,97.0313806 55.7368413,96.9417032 L55.7368413,96.9417032 Z M64.4210529,90.304929 L73.1929806,86 L76.3508645,90.035871 L75.210529,95.1479742 L65.4736852,95.1479742 L64.4210529,90.304929 L64.4210529,90.304929 Z M74.8596387,96.9417032 L72.8421161,105.820625 L67.3157884,103.040361 L65.9122813,96.9417032 L74.8596387,96.9417032 L74.8596387,96.9417032 Z M76.6140387,96.9417032 L81.7017548,96.9417032 L84.8596387,100.977579 L78.8070194,108.780271 L74.5087742,106.627801 L76.6140387,96.9417032 L76.6140387,96.9417032 Z M86,102.412555 L91.6140387,109.587448 L86,112.278031 L80.3859613,109.587448 L86,102.412555 L86,102.412555 Z M87.1403613,100.977579 L90.2982452,96.9417032 L95.2982452,96.9417032 L97.4912258,106.627801 L93.1929806,108.780271 L87.1403613,100.977579 L87.1403613,100.977579 Z M97.1403613,96.9417032 L106.087716,96.9417032 L104.684206,103.040361 L99.1579097,105.820625 L97.1403613,96.9417032 L97.1403613,96.9417032 Z M96.7017548,95.1479742 L95.6491355,90.035871 L98.8070194,86 L107.578942,90.304929 L106.526323,95.1479742 L96.7017548,95.1479742 L96.7017548,95.1479742 Z M107.929832,96.9417032 L116.263148,96.9417032 C116.263148,97.0313806 116.350865,97.2107613 116.350865,97.3901419 L106.701755,102.053812 L107.929832,96.9417032 L107.929832,96.9417032 Z M116.263148,95.1479742 L108.280697,95.1479742 L109.157884,91.1121032 L116.350865,94.6995613 C116.350865,94.7892387 116.263148,94.9686194 116.263148,95.1479742 L116.263148,95.1479742 Z M107.929832,88.5112 L99.8596645,84.5650323 L105.473677,77.3901419 L109.333342,82.4125677 L107.929832,88.5112 L107.929832,88.5112 Z M110.473677,68.1524645 L105.473677,74.5201806 L103.017548,71.3811613 L110.210529,67.793729 C110.298245,67.9730839 110.385961,68.0627871 110.473677,68.1524645 L110.473677,68.1524645 Z M100.210529,70.7533677 L92.1403613,74.6995613 L90.210529,65.7309419 L96.3508645,65.7309419 L100.210529,70.7533677 L100.210529,70.7533677 Z M81.789471,65.7309419 L79.7719226,74.6995613 L71.7017548,70.7533677 L75.6491355,65.7309419 L81.789471,65.7309419 L81.789471,65.7309419 Z M68.9824568,71.3811613 L66.5263174,74.5201806 L61.5263174,68.1524645 C61.6140361,68.0627871 61.7017548,67.9730839 61.7894735,67.793729 L68.9824568,71.3811613 L68.9824568,71.3811613 Z M72.3157935,116.40359 L74.0701677,108.421528 L77.6666581,110.215246 L72.6666581,116.582957 C72.5789419,116.493277 72.4035097,116.40359 72.3157935,116.40359 L72.3157935,116.40359 Z M74.0701677,117.659195 L79.3333419,111.022423 L83.9824516,113.264575 L74.3333419,118.017941 C74.2456258,117.928253 74.1578839,117.838565 74.0701677,117.659195 L74.0701677,117.659195 Z M75.1228129,119.632292 L86,114.251125 L96.8771871,119.632292 C96.8771871,119.811659 96.789471,119.901347 96.789471,120.080715 L75.210529,120.080715 C75.210529,119.901347 75.1228129,119.811659 75.1228129,119.632292 L75.1228129,119.632292 Z M88.0175484,113.264575 L92.6666581,111.022423 L97.9298323,117.659195 C97.8421161,117.838565 97.7543742,117.928253 97.6666581,118.017941 L88.0175484,113.264575 L88.0175484,113.264575 Z M103.543871,116.40359 L106.263148,104.295961 L117.140361,99.0044903 C117.228077,99.0941677 117.315794,99.1838452 117.40351,99.2735484 L103.982452,116.582957 C103.807019,116.493277 103.719303,116.40359 103.543871,116.40359 L103.543871,116.40359 Z M109.59649,89.3184 L110.736852,84.206271 L117.40351,92.7264516 C117.315794,92.8161548 117.228077,92.9058323 117.140361,93.0852129 L109.59649,89.3184 L109.59649,89.3184 Z M109.421058,63.5784774 C109.333342,63.6681548 109.333342,63.8475355 109.333342,63.9372129 L97.2280774,63.9372129 L89.6842065,54.3408 C89.7719226,54.1614452 89.8596387,54.0717419 89.9473806,53.9820645 L109.421058,63.5784774 L109.421058,63.5784774 Z M82.0526452,53.9820645 C82.1403613,54.0717419 82.2280774,54.1614452 82.3157935,54.3408 L74.7719226,63.9372129 L62.6666684,63.9372129 C62.6666684,63.8475355 62.5789471,63.6681548 62.5789471,63.4888 L82.0526452,53.9820645 L82.0526452,53.9820645 Z M57.6666658,69.8564903 L57.8421058,69.8564903 L58.1052645,69.8564903 L60.7368439,81.964129 L53.1929832,91.5605419 C53.1052645,91.4708645 52.9298245,91.4708645 52.8421058,91.3811613 L57.6666658,69.8564903 L57.6666658,69.8564903 Z" id="Fill-3" fill="#FFFFFF"></path>
                    </g>
                    <g id="Group-3">
                        <circle id="Oval-3" fill="#0C76BE" cx="86" cy="86" r="86"></circle>
                        <g id="noun_223836_cc" transform="translate(52.000000, 48.000000)" fill="#FFFFFF">
                            <path d="M50.5833333,73.25 C48.25,72.8333333 46.4166667,72 44.6666667,70.75 C44.25,70.4166667 43.5833333,70 42.9166667,69.6666667 C42.3333333,69.3333333 41.8333333,69 41.3333333,68.6666667 C40.0833333,67.8333333 38.75,67.0833333 37.4166667,66.4166667 L19.75,66.4166667 L19.75,66.4166667 L19.6666667,66.4166667 L6.33333333,66.4166667 C5.08333333,66.4166667 4.08333333,65.4166667 4.08333333,64.1666667 L4.08333333,63.75 L4.08333333,61.9166667 L4.08333333,15.5833333 L4.08333333,10.3333333 C4.08333333,9.66666667 4.41666667,9 5,8.66666667 C5.33333333,8.5 5.66666667,8.33333333 6.08333333,8.33333333 L48.0833333,8.33333333 L48.25,8.33333333 C48.5,8.33333333 48.8333333,8.41666667 49,8.58333333 C49.5833333,8.91666667 50,9.58333333 50,10.25 L50,15.5 L50,38.75 L51.6666667,40.8333333 C52.3333333,40.6666667 53.0833333,40.5 53.9166667,40.25 L53.9166667,15.5 L53.9166667,15.5 L53.9166667,6.16666667 C53.9166667,3.66666667 52.4166667,1.5 50.1666667,0.583333333 C49.4166667,0.25 48.6666667,0.0833333333 47.75,0.0833333333 L27,0.0833333333 L6.25,0.0833333333 C5.41666667,0.0833333333 4.58333333,0.25 3.83333333,0.583333333 C1.66666667,1.5 0.0833333333,3.66666667 0.0833333333,6.16666667 L0.0833333333,15.5 L0.0833333333,15.5 L0.0833333333,61.8333333 L0.0833333333,61.8333333 L0.0833333333,66.9166667 L0.0833333333,69.75 L0.0833333333,69.9166667 C0.0833333333,73.1666667 2.75,75.8333333 6,75.8333333 L19.5,75.8333333 L19.5,75.8333333 L26.9166667,75.8333333 L36.9166667,75.8333333 L36.9166667,75.8333333 L47.6666667,75.8333333 C49.5,75.8333333 51.1666667,75 52.25,73.6666667 C51.4166667,73.4166667 50.6666667,73.25 50.5833333,73.25 L50.5833333,73.25 Z M30,72.75 L24.0833333,72.75 C23.5,72.75 22.9166667,72.4166667 22.6666667,71.9166667 C22.5833333,71.6666667 22.5,71.4166667 22.5,71.1666667 C22.5,70.9166667 22.5833333,70.6666667 22.6666667,70.4166667 C22.9166667,69.9166667 23.5,69.5833333 24.0833333,69.5833333 L30,69.5833333 C30.4166667,69.5833333 30.8333333,69.75 31.0833333,70.0833333 C31.1666667,70.1666667 31.25,70.25 31.3333333,70.3333333 C31.5,70.5833333 31.5833333,70.8333333 31.5833333,71.1666667 C31.5833333,72 30.9166667,72.75 30,72.75 L30,72.75 Z M34.3333333,52.25 L34.3333333,38.4166667 L35.75,40.9166667 C36,41.3333333 36.1666667,41.6666667 36.4166667,42.0833333 L36.4166667,51.25 L41.4166667,51.25 L41.4166667,50.9166667 C41.8333333,51.6666667 42.25,52.5 42.6666667,53.25 C42.5833333,53.25 42.5,53.3333333 42.4166667,53.3333333 L35.4166667,53.3333333 C34.75,53.25 34.3333333,52.8333333 34.3333333,52.25 L34.3333333,52.25 Z M12.8333333,36.3333333 C12.25,36.3333333 11.8333333,36.8333333 11.8333333,37.3333333 L11.8333333,52.25 C11.8333333,52.8333333 12.3333333,53.25 12.8333333,53.25 L19.8333333,53.25 C20.4166667,53.25 20.8333333,52.75 20.8333333,52.25 L20.8333333,37.3333333 C20.8333333,36.75 20.3333333,36.3333333 19.8333333,36.3333333 L12.8333333,36.3333333 L12.8333333,36.3333333 Z M13.8333333,51.25 L13.8333333,49.6666667 L15.4166667,51.25 L13.8333333,51.25 L13.8333333,51.25 Z M17.0833333,51.25 L13.8333333,48 L13.8333333,46.4166667 L18.6666667,51.25 L17.0833333,51.25 L17.0833333,51.25 Z M18.8333333,49.75 L13.8333333,44.75 L13.8333333,43.1666667 L18.8333333,48.1666667 L18.8333333,49.75 L18.8333333,49.75 Z M18.8333333,46.5 L13.8333333,41.5 L13.8333333,39.9166667 L18.8333333,44.9166667 L18.8333333,46.5 L18.8333333,46.5 Z M18.8333333,43.25 L14,38.4166667 L15.5833333,38.4166667 L18.8333333,41.6666667 L18.8333333,43.25 L18.8333333,43.25 Z M18.8333333,40 L17.25,38.4166667 L18.8333333,38.4166667 L18.8333333,40 L18.8333333,40 Z M31.0833333,53.25 L24.0833333,53.25 C23.5,53.25 23.0833333,52.75 23.0833333,52.25 L23.0833333,23.75 C23.0833333,23.1666667 23.5833333,22.75 24.0833333,22.75 L31.0833333,22.75 C31.6666667,22.75 32.0833333,23.25 32.0833333,23.75 L32.0833333,52.25 C32.1666667,52.8333333 31.6666667,53.25 31.0833333,53.25 L31.0833333,53.25 Z M79.5,64.3333333 C80.0833333,65.3333333 79.8333333,66.5833333 79,67.25 L68.9166667,75.4166667 C67.25,76.75 64.8333333,76.8333333 63.1666667,75.5 C57.8333333,71.5 51.25,70.0833333 51.25,70.0833333 L51.25,70.0833333 C49.5833333,69.75 48.0833333,69.25 46.5833333,68.1666667 C45.5833333,67.4166667 44.0833333,66.6666667 43.0833333,66 C40.4166667,64.25 37.5833333,62.75 34.5833333,61.75 C33.25,61.3333333 32.9166667,60.5 33.4166667,59.1666667 C33.6666667,58.5 34.4166667,57.6666667 35.0833333,57.3333333 C36.5833333,56.5833333 38.1666667,56.6666667 39.6666667,56.9166667 C40.5833333,57 44.5833333,59 46.3333333,59.6666667 C47.9166667,60.25 48.1666667,58.8333333 48,57.1666667 C47.9166667,56.3333333 47.6666667,55.5833333 47.25,54.8333333 C43.75,48.3333333 40.0833333,41.9166667 36.5,35.5 C35.6666667,34.0833333 36,32.5833333 37.25,31.75 C38.5,30.9166667 40.1666667,31.1666667 41.1666667,32.4166667 C42.5833333,34.1666667 43.9166667,35.9166667 45.3333333,37.6666667 C46.5833333,39.25 47.9166667,40.9166667 49.1666667,42.5833333 L50.75,44.5 C50.75,44.5 60,40.9166667 70.5833333,43.4166667 C71.1666667,43.5833333 71.6666667,43.9166667 71.9166667,44.5 C73.0833333,46.6666667 76.1666667,52.6666667 76.9166667,58.5 C77.3333333,60 77.9166667,61.25 78.25,62.0833333 L79.5,64.3333333 L79.5,64.3333333 Z" id="Shape"></path>
                        </g>
                    </g>
                    <g id="Group-3">
                        <circle id="Oval-3" fill="#0C76BE" cx="86" cy="86" r="86"></circle>
                        <g id="noun_648838_cc" transform="translate(60.000000, 46.000000)" fill="#FFFFFF">
                            <path d="M62.194617,70.8074534 C62.0289855,70.0621118 62.0289855,68.73706 62.0289855,67.2463768 C62.0289855,62.5258799 62.1118012,55.4037267 56.6459627,46.7908903 L56.6459627,46.7908903 L53.3333333,41.573499 C52.7536232,40.6625259 51.8426501,40 50.8488613,39.8343685 C49.7722567,39.5859213 48.6956522,39.7515528 47.7846791,40.3312629 C47.7846791,40.3312629 47.7846791,40.3312629 47.7018634,40.3312629 C47.2049689,40.6625259 46.7080745,41.1594203 46.4596273,41.6563147 C45.9627329,41.3250518 45.4658385,40.9937888 44.8861284,40.9109731 C44.057971,40.7453416 43.1469979,40.8281573 42.3188406,41.1594203 L42.3188406,6.6252588 C42.3188406,2.98136646 39.3374741,0 35.6935818,0 L6.6252588,0 C2.98136646,0 0,2.98136646 0,6.6252588 L0,68.0745342 C0,71.7184265 2.98136646,74.699793 6.6252588,74.699793 L35.7763975,74.699793 C36.5217391,74.699793 37.2670807,74.5341615 38.0124224,74.2857143 C39.6687371,75.0310559 41.1594203,75.5279503 42.484472,75.8592133 C43.3126294,76.1076605 44.057971,76.3561077 44.6376812,76.6045549 C44.7204969,76.6873706 44.8033126,76.6873706 44.9689441,76.6873706 L44.9689441,76.6873706 C46.3768116,77.0186335 46.873706,77.7639752 47.6190476,79.0062112 L47.8674948,79.4202899 C48.115942,79.7515528 48.5300207,80 48.8612836,80 C49.1097308,80 49.2753623,79.9171843 49.5238095,79.8343685 C50.1035197,79.5031056 50.2691511,78.757764 49.9378882,78.1780538 L49.689441,77.7639752 C48.7784679,76.3561077 47.8674948,74.8654244 45.4658385,74.2857143 L45.4658385,74.2857143 C44.8033126,74.0372671 44.057971,73.7888199 43.1469979,73.5403727 C40,72.6293996 35.6935818,71.3871636 32.2981366,66.0041408 L32.2981366,66.0041408 L29.7308489,61.9461698 C29.3995859,61.4492754 29.3167702,60.7867495 29.3995859,60.2070393 C29.5652174,59.6273292 29.8964803,59.1304348 30.3933747,58.7991718 L30.3933747,58.7991718 C30.6418219,58.6335404 32.1325052,57.6397516 32.2981366,57.6397516 L36.1904762,63.6024845 C36.4389234,63.9337474 36.8530021,64.1821946 37.184265,64.1821946 C37.4327122,64.1821946 37.5983437,64.0993789 37.8467909,64.0165631 C38.426501,63.6853002 38.5921325,62.9399586 38.2608696,62.3602484 L24.0993789,40.2484472 C23.7681159,39.7515528 23.6853002,39.2546584 23.8509317,38.757764 C23.9337474,38.2608696 24.2650104,37.7639752 24.7619048,37.515528 L24.8447205,37.515528 L24.9275362,37.515528 C25.4244306,37.184265 25.9213251,37.1014493 26.5010352,37.2670807 C26.9979296,37.3498965 27.494824,37.6811594 27.7432712,38.1780538 L35.1138716,49.689441 L35.1138716,49.689441 L35.1138716,49.689441 L38.5921325,55.0724638 C38.8405797,55.4037267 39.2546584,55.6521739 39.5859213,55.6521739 C39.8343685,55.6521739 40,55.5693582 40.2484472,55.4865424 C40.8281573,55.1552795 40.9937888,54.4099379 40.6625259,53.8302277 L37.184265,48.447205 C36.6873706,47.6190476 36.9358178,46.5424431 37.6811594,46.0455487 L37.6811594,46.0455487 C38.5093168,45.5486542 39.5859213,45.7971014 40.0828157,46.5424431 L43.5610766,51.9254658 C43.8095238,52.2567288 44.2236025,52.505176 44.5548654,52.505176 C44.8033126,52.505176 44.9689441,52.4223602 45.2173913,52.3395445 C45.7971014,52.0082816 45.9627329,51.26294 45.63147,50.6832298 L42.7329193,46.2111801 L42.7329193,46.2111801 C42.484472,45.7971014 42.4016563,45.3830228 42.484472,44.8861284 C42.5672878,44.4720497 42.815735,44.057971 43.2298137,43.8095238 L43.2298137,43.8095238 C43.6438923,43.5610766 44.057971,43.4782609 44.5548654,43.5610766 C44.9689441,43.6438923 45.3830228,43.8923395 45.63147,44.3064182 L46.7908903,46.1283644 L46.7908903,46.1283644 L46.7908903,46.1283644 L49.1097308,49.7722567 C49.3581781,50.1035197 49.7722567,50.3519669 50.1035197,50.3519669 C50.3519669,50.3519669 50.5175983,50.2691511 50.7660455,50.1863354 C51.3457557,49.8550725 51.5113872,49.1097308 51.1801242,48.5300207 L48.8612836,44.8861284 L48.8612836,44.8861284 C48.6128364,44.5548654 48.5300207,44.057971 48.6128364,43.6438923 C48.6956522,43.2298137 48.9440994,42.8985507 49.2753623,42.6501035 L49.2753623,42.6501035 C49.6066253,42.4016563 50.1035197,42.3188406 50.5175983,42.4016563 C50.931677,42.484472 51.26294,42.7329193 51.5113872,43.0641822 L54.8240166,48.2815735 C59.8757764,56.2318841 59.8757764,62.9399586 59.7929607,67.4120083 C59.7929607,69.1511387 59.7929607,70.4761905 60.0414079,71.552795 C60.2070393,72.1325052 60.7039337,72.4637681 61.2008282,72.4637681 L61.5320911,72.4637681 C61.9461698,72.0496894 62.3602484,71.3871636 62.194617,70.8074534 L62.194617,70.8074534 Z M16.7287785,5.2173913 L25.6728778,5.2173913 C26.252588,5.2173913 26.6666667,5.63146998 26.6666667,6.21118012 C26.6666667,6.79089027 26.252588,7.20496894 25.6728778,7.20496894 L16.7287785,7.20496894 C16.1490683,7.20496894 15.7349896,6.79089027 15.7349896,6.21118012 C15.7349896,5.63146998 16.1490683,5.2173913 16.7287785,5.2173913 L16.7287785,5.2173913 Z M21.2008282,70.1449275 C19.8757764,70.1449275 18.7163561,69.068323 18.7163561,67.6604555 C18.7163561,66.3354037 19.7929607,65.1759834 21.2008282,65.1759834 C22.5258799,65.1759834 23.6853002,66.252588 23.6853002,67.6604555 C23.6024845,69.068323 22.5258799,70.1449275 21.2008282,70.1449275 L21.2008282,70.1449275 Z M36.3561077,43.7267081 C36.2732919,43.7267081 36.2732919,43.8095238 36.1904762,43.8095238 C35.6935818,44.1407867 35.2795031,44.5548654 34.9482402,45.0517598 L29.6480331,36.6873706 C28.9855072,35.6935818 27.9917184,34.9482402 26.8322981,34.699793 C25.6728778,34.4513458 24.5134576,34.6169772 23.436853,35.2795031 C23.436853,35.2795031 23.436853,35.2795031 23.3540373,35.2795031 C23.3540373,35.2795031 23.3540373,35.2795031 23.2712215,35.2795031 C22.2774327,35.942029 21.5320911,36.9358178 21.2836439,38.0952381 C21.0351967,39.2546584 21.2008282,40.4140787 21.863354,41.4906832 L30.8074534,55.4865424 C30.3933747,55.7349896 29.068323,56.563147 28.9026915,56.7287785 L28.9026915,56.7287785 C27.826087,57.3913043 27.0807453,58.4679089 26.8322981,59.7101449 C26.6666667,60.3726708 26.6666667,60.952381 26.8322981,61.6149068 L3.14699793,61.6149068 L3.14699793,12.2567288 L39.1718427,12.2567288 L39.1718427,43.2298137 C38.2608696,43.0641822 37.2670807,43.2298137 36.3561077,43.7267081 L36.3561077,43.7267081 Z" id="Shape"></path>
                        </g>
                    </g>
                    <g id="Group-3">
                        <circle id="Oval-3" fill="#0C76BE" cx="86" cy="86" r="86"></circle>
                        <g id="noun_593812_cc" transform="translate(56.000000, 46.000000)" fill="#FFFFFF">
                            <path d="M5.2173913,0 C2.35704348,0 0,2.35703478 0,5.2173913 L0,74.7826261 C0,77.6429739 2.35704348,80.0000174 5.2173913,80.0000174 L53.9130435,80.0000174 C56.7733913,80.0000174 59.1304348,77.6429739 59.1304348,74.7826261 L59.1304348,5.2173913 C59.1304348,2.35703478 56.7733913,9.88581198e-14 53.9130435,9.88581198e-14 L5.2173913,9.88581198e-14 L5.2173913,0 Z M5.2173913,3.47826087 L53.9130435,3.47826087 C54.9066087,3.47826087 55.6521739,4.22382609 55.6521739,5.2173913 L55.6521739,6.95652174 L3.47826087,6.95652174 L3.47826087,5.2173913 C3.47826087,4.22382609 4.22382609,3.47826087 5.2173913,3.47826087 L5.2173913,3.47826087 Z M3.47826087,10.4347826 L55.6521739,10.4347826 L55.6521739,66.0869739 L3.47826087,66.0869739 L3.47826087,10.4347826 L3.47826087,10.4347826 Z M37.3913043,27.8532609 C36.397913,27.8619565 35.5529565,28.6969565 35.5706087,29.673913 C35.6132174,30.5846087 36.4806087,31.3743913 37.3913043,31.3315217 L43.3424348,31.3315217 L32.1195652,41.2500174 L24.9184348,35.4891304 C23.9925217,34.6192174 23.0954783,34.6747826 22.3369565,35.2173913 L10.1630435,45.6521913 C9.47295652,46.2498435 9.40243478,47.4077565 10,48.0978435 C10.5975652,48.7878435 11.7555652,48.8855826 12.4456522,48.2880174 L23.5053913,38.8043652 L30.5434783,44.4293217 C31.0628696,45.3801913 32.5587826,45.5854957 33.3152174,44.8097565 L46.0869565,33.5326087 L46.0869565,40.0271478 C46.073913,40.9459304 46.9072174,41.7934957 47.826087,41.7934957 C48.7449565,41.7934957 49.5781739,40.9459304 49.5652174,40.0271478 L49.5652174,29.5923913 C49.5651304,28.6817826 48.7366957,27.8533478 47.826087,27.8532609 L37.3913043,27.8532609 L37.3913043,27.8532609 Z M3.47826087,69.5652348 L55.6521739,69.5652348 L55.6521739,74.7826261 C55.6521739,75.7761913 54.9066087,76.5217565 53.9130435,76.5217565 L5.2173913,76.5217565 C4.22382609,76.5217565 3.47826087,75.7761913 3.47826087,74.7826261 L3.47826087,69.5652348 L3.47826087,69.5652348 Z M29.5652174,71.3043652 C28.6046957,71.3043652 27.826087,72.0829739 27.826087,73.0434957 C27.826087,74.0040174 28.6046957,74.7826261 29.5652174,74.7826261 C30.5257391,74.7826261 31.3043478,74.0040174 31.3043478,73.0434957 C31.3043478,72.0829739 30.5257391,71.3043652 29.5652174,71.3043652 L29.5652174,71.3043652 Z" id="Shape"></path>
                        </g>
                    </g>
                    <g id="Group-3">
                        <circle id="Oval-3" fill="#0C76BE" cx="86" cy="86" r="86"></circle>
                        <g id="noun_223668_cc" transform="translate(46.000000, 54.000000)" fill="#FFFFFF">
                            <path d="M79.1836735,53.4693878 C79.6734694,54.2857143 79.5102041,55.3469388 78.7755102,55.9183673 L70.3673469,62.6938776 C68.9795918,63.8367347 67.0204082,63.8367347 65.5510204,62.7755102 C61.1428571,59.4285714 55.6734694,58.2857143 55.6734694,58.2857143 L55.6734694,58.2857143 C54.2857143,58.0408163 53.0612245,57.6326531 51.755102,56.6530612 C50.9387755,56.0816327 49.7142857,55.4285714 48.8979592,54.8571429 C46.6938776,53.3877551 44.3265306,52.1632653 41.877551,51.3469388 C40.8163265,51.0204082 40.4897959,50.2857143 40.8979592,49.2244898 C41.1428571,48.6530612 41.7142857,48 42.2857143,47.6734694 C43.5102041,47.0204082 44.8979592,47.1020408 46.0408163,47.3469388 C46.7755102,47.4285714 50.122449,49.0612245 51.5918367,49.6326531 C52.8979592,50.122449 53.1428571,48.8979592 52.9795918,47.5102041 C52.8979592,46.8571429 52.6530612,46.2040816 52.3265306,45.5510204 C49.3877551,40.1632653 46.3673469,34.8571429 43.3469388,29.5510204 C42.6938776,28.4081633 42.9387755,27.1020408 44,26.3673469 C45.0612245,25.6326531 46.3673469,25.877551 47.2653061,26.9387755 C48.4081633,28.4081633 49.5510204,29.877551 50.6938776,31.3469388 C51.755102,32.6530612 52.8163265,34.0408163 53.877551,35.4285714 L55.1836735,37.0612245 C55.1836735,37.0612245 62.8571429,34.0408163 71.6734694,36.1632653 C72.1632653,36.244898 72.5714286,36.5714286 72.8163265,37.0612245 C73.7959184,38.8571429 76.3265306,43.8367347 76.9795918,48.6530612 C77.3061224,49.877551 77.7959184,50.9387755 78.122449,51.6734694 L79.1836735,53.4693878 L79.1836735,53.4693878 Z M50.2857143,58.7755102 C49.9591837,58.5306122 49.3877551,58.2040816 48.8163265,57.877551 C48.3265306,57.6326531 47.9183673,57.3061224 47.5102041,57.0612245 C46.4489796,56.3265306 45.3877551,55.755102 44.3265306,55.1836735 L32.6530612,55.1836735 L32.6530612,57.6326531 L32.6530612,57.877551 C32.8163265,57.7959184 33.0612245,57.7142857 33.2244898,57.7142857 L38.122449,57.7142857 C38.4489796,57.7142857 38.7755102,57.877551 39.0204082,58.122449 C39.1020408,58.2040816 39.1836735,58.2857143 39.1836735,58.3673469 C39.3469388,58.5306122 39.3469388,58.7755102 39.3469388,59.0204082 C39.3469388,59.755102 38.7755102,60.3265306 38.0408163,60.3265306 L33.1428571,60.3265306 C32.8163265,60.3265306 32.4897959,60.1632653 32.244898,59.9183673 C31.9183673,61.0612245 31.3469388,62.0408163 30.5306122,62.9387755 L35.5918367,62.9387755 L43.9183673,62.9387755 L43.9183673,62.9387755 L52.8163265,62.9387755 C54.3673469,62.9387755 55.755102,62.2857143 56.6530612,61.1428571 C55.8367347,60.8979592 55.1836735,60.7346939 55.1020408,60.7346939 C53.2244898,60.4897959 51.6734694,59.8367347 50.2857143,58.7755102 L50.2857143,58.7755102 Z M57.9591837,5.14285714 C57.9591837,3.02040816 56.6530612,1.2244898 54.8571429,0.489795918 C54.2857143,0.244897959 53.5510204,0.0816326531 52.8979592,0.0816326531 L35.6734694,0.0816326531 L18.4489796,0.0816326531 C17.7142857,0.0816326531 17.0612245,0.244897959 16.4897959,0.489795918 C14.6938776,1.2244898 13.3877551,3.02040816 13.3877551,5.14285714 L13.3877551,9.79591837 L16.6530612,9.79591837 L16.6530612,8.48979592 C16.6530612,7.91836735 16.9795918,7.42857143 17.3877551,7.10204082 C17.6326531,6.93877551 17.9591837,6.85714286 18.2857143,6.85714286 L53.1428571,6.85714286 L53.3061224,6.85714286 C53.5510204,6.85714286 53.7959184,6.93877551 53.9591837,7.10204082 C54.4489796,7.34693878 54.7755102,7.91836735 54.7755102,8.48979592 L54.7755102,12.8979592 L54.7755102,32.1632653 L56.1632653,33.877551 C56.6530612,33.7142857 57.3061224,33.5510204 58.0408163,33.3877551 L58.0408163,12.8163265 L58.0408163,12.8163265 L57.9591837,5.14285714 L57.9591837,5.14285714 Z M29.877551,18.0408163 L29.877551,22.6938776 L29.877551,46.6122449 L29.877551,57.6326531 C29.877551,60.6530612 27.4285714,63.0204082 24.4897959,63.0204082 L5.95918367,63.0204082 C2.93877551,63.0204082 0.571428571,60.5714286 0.571428571,57.6326531 L0.571428571,18.0408163 C0.571428571,15.0204082 3.02040816,12.6530612 5.95918367,12.6530612 L24.4897959,12.6530612 C27.4285714,12.6530612 29.877551,15.1020408 29.877551,18.0408163 L29.877551,18.0408163 Z M18.9387755,59.3469388 C18.9387755,58.6122449 18.2857143,57.9591837 17.5510204,57.9591837 L12.3265306,57.9591837 C11.5918367,57.9591837 10.9387755,58.6122449 10.9387755,59.3469388 C10.9387755,60.0816327 11.5918367,60.7346939 12.3265306,60.7346939 L17.5510204,60.7346939 C18.2857143,60.7346939 18.9387755,60.1632653 18.9387755,59.3469388 L18.9387755,59.3469388 Z M27.0204082,21.3877551 C27.0204082,20.6530612 26.3673469,20 25.6326531,20 L4.81632653,20 C4.08163265,20 3.42857143,20.6530612 3.42857143,21.3877551 L3.42857143,54.2857143 C3.42857143,55.0204082 4.08163265,55.6734694 4.81632653,55.6734694 L25.6326531,55.6734694 C26.3673469,55.6734694 27.0204082,55.0204082 27.0204082,54.2857143 L27.0204082,49.3061224 L27.0204082,46.5306122 L27.0204082,22.6938776 L27.0204082,21.6326531 L27.0204082,21.3877551 L27.0204082,21.3877551 Z" id="Shape"></path>
                        </g>
                    </g>
                </g>
            </g>
        </g>
    </g>
</svg>