<?xml version="1.0" encoding="UTF-8"?>
<svg width="172px" height="172px" viewBox="0 0 172 172" version="1.1" xmlns="http://www.w3.org/2000/svg" xmlns:xlink="http://www.w3.org/1999/xlink">
    <!-- Generator: sketchtool 41.2 (35397) - http://www.bohemiancoding.com/sketch -->
    <title>B5E02A87-6CC3-45D5-B8ED-69DDA0A50CAD</title>
    <desc>Created with sketchtool.</desc>
    <defs></defs>
    <g id="Page-1" stroke="none" stroke-width="1" fill="none" fill-rule="evenodd">
        <g id="Desktop_Landing-Screen_FTUE-Sign-Up" transform="translate(-477.000000, -843.000000)">
            <g id="bill-reminder-icon" transform="translate(477.000000, 843.000000)">
                <circle id="Oval-3" fill="#0C76BE" cx="86" cy="86" r="86"></circle>
                <path d="M102,56 L106.304217,56 C110.721137,56 114.301758,59.5735893 114.301758,63.9985496 L114.301758,108.00145 C114.301758,112.418927 110.713579,116 106.304217,116 L55.9975411,116 C51.5806211,116 48,112.426411 48,108.00145 L48,63.9985496 C48,59.5810726 51.5881788,56 55.9975411,56 L61,56 L61,51.5028229 C61,50.120552 62.1096621,49 63.5,49 C64.8807119,49 66,50.1259806 66,51.5028229 L66,56 L97,56 L97,51.5028229 C97,50.120552 98.1096621,49 99.5,49 C100.880712,49 102,50.1259806 102,51.5028229 L102,56 Z M102,60 L106.353376,60 C108.55703,60 110.343444,61.7899577 110.343444,63.9940093 L110.343444,108.005991 C110.343444,110.211821 108.548175,112 106.353376,112 L55.9483814,112 C53.744728,112 51.9583139,110.210042 51.9583139,108.005991 L51.9583139,63.9940093 C51.9583139,61.7881789 53.753583,60 55.9483814,60 L61,60 L61,64.4971771 C61,65.8740194 62.1192881,67 63.5,67 C64.8903379,67 66,65.879448 66,64.4971771 L66,60 L97,60 L97,64.4971771 C97,65.8740194 98.1192881,67 99.5,67 C100.890338,67 102,65.879448 102,64.4971771 L102,60 Z M83.4512425,100.079688 L79.2475527,100.079688 C78.091538,100.079688 77.1457078,99.128125 77.1457078,97.9651042 L77.1457078,93.7359375 C77.1457078,92.5729167 78.091538,91.6213542 79.2475527,91.6213542 L83.4512425,91.6213542 C84.6072572,91.6213542 85.5530873,92.5729167 85.5530873,93.7359375 L85.5530873,97.9651042 C85.5530873,99.128125 84.6072572,100.079688 83.4512425,100.079688 Z M98.1641566,100.079688 L93.9604669,100.079688 C92.8044522,100.079688 91.858622,99.128125 91.858622,97.9651042 L91.858622,93.7359375 C91.858622,92.5729167 92.8044522,91.6213542 93.9604669,91.6213542 L98.1641566,91.6213542 C99.3201713,91.6213542 100.266002,92.5729167 100.266002,93.7359375 L100.266002,97.9651042 C100.266002,99.128125 99.3201713,100.079688 98.1641566,100.079688 Z M68.7383283,100.079688 L64.5346386,100.079688 C63.3786239,100.079688 62.4327937,99.128125 62.4327937,97.9651042 L62.4327937,93.7359375 C62.4327937,92.5729167 63.3786239,91.6213542 64.5346386,91.6213542 L68.7383283,91.6213542 C69.894343,91.6213542 70.8401732,92.5729167 70.8401732,93.7359375 L70.8401732,97.9651042 C70.8401732,99.128125 69.894343,100.079688 68.7383283,100.079688 Z M83.4512425,85.2776042 L79.2475527,85.2776042 C78.091538,85.2776042 77.1457078,84.3260417 77.1457078,83.1630208 L77.1457078,78.9338542 C77.1457078,77.7708333 78.091538,76.8192708 79.2475527,76.8192708 L83.4512425,76.8192708 C84.6072572,76.8192708 85.5530873,77.7708333 85.5530873,78.9338542 L85.5530873,83.1630208 C85.5530873,84.3260417 84.6072572,85.2776042 83.4512425,85.2776042 Z M98.1641566,85.2776042 L93.9604669,85.2776042 C92.8044522,85.2776042 91.858622,84.3260417 91.858622,83.1630208 L91.858622,78.9338542 C91.858622,77.7708333 92.8044522,76.8192708 93.9604669,76.8192708 L98.1641566,76.8192708 C99.3201713,76.8192708 100.266002,77.7708333 100.266002,78.9338542 L100.266002,83.1630208 C100.266002,84.3260417 99.3201713,85.2776042 98.1641566,85.2776042 Z M68.7383283,85.2776042 L64.5346386,85.2776042 C63.3786239,85.2776042 62.4327937,84.3260417 62.4327937,83.1630208 L62.4327937,78.9338542 C62.4327937,77.7708333 63.3786239,76.8192708 64.5346386,76.8192708 L68.7383283,76.8192708 C69.894343,76.8192708 70.8401732,77.7708333 70.8401732,78.9338542 L70.8401732,83.1630208 C70.8401732,84.3260417 69.894343,85.2776042 68.7383283,85.2776042 Z" id="Combined-Shape" fill="#FFFFFF"></path>
                <circle id="Oval-2-Copy" fill="#0C76BE" cx="113" cy="106" r="22"></circle>
                <circle id="Oval-2" fill="#FFFFFF" cx="113" cy="106" r="18"></circle>
                <path d="M111.8125,116 C109.7125,115.8 107.9125,115.2 106.6125,114.2 C105.9125,113.7 105.8125,112.8 106.3125,112.1 C106.8125,111.4 107.8125,111.3 108.4125,111.8 C109.3125,112.5 110.4125,113 111.8125,113.2 L111.8125,108 C109.0125,107.3 106.1125,106.3 106.1125,102.8 C106.1125,100 108.3125,97.9 111.8125,97.6 L111.8125,95.9977921 C111.8125,95.4467267 112.257703,95 112.809509,95 L113.015491,95 C113.566124,95 114.0125,95.4469499 114.0125,96.0024408 L114.0125,97.5 C115.6125,97.7 117.0125,98.2 118.2125,98.9 C118.9125,99.4 119.1125,100.3 118.6125,101 C118.1125,101.6 117.3125,101.7 116.6125,101.3 C115.8125,100.8 115.0125,100.5 114.1125,100.3 L114.1125,105 C116.9125,105.8 119.9125,106.8 119.9125,110.4 C119.9125,113.2 118.1125,115.6 114.1125,115.9 L114.1125,117.29609 C114.1125,117.850534 113.667297,118.3 113.115491,118.3 L112.909509,118.3 C112.358876,118.3 111.9125,117.856537 111.9125,117.297877 L111.9125,116 L111.8125,116 Z M111.8125,104.5 L111.8125,100.3 C110.3125,100.5 109.3125,101.3 109.3125,102.5 C109.3125,103.5 110.4125,104.1 111.8125,104.5 L111.8125,104.5 Z M114.0125,108.5 L114.0125,113.2 C115.9125,112.9 116.6125,111.8 116.6125,110.8 C116.6125,109.6 115.5125,109 114.0125,108.5 L114.0125,108.5 Z" id="Shape" fill="#0C76BE"></path>
            </g>
        </g>
    </g>
</svg>