<?xml version="1.0" encoding="UTF-8"?>
<svg width="140px" height="140px" viewBox="0 0 140 140" version="1.1" xmlns="http://www.w3.org/2000/svg" xmlns:xlink="http://www.w3.org/1999/xlink">
    <!-- Generator: sketchtool 42 (36781) - http://www.bohemiancoding.com/sketch -->
    <title>64485430-0A4C-4653-8F03-D2C56E08BDB9</title>
    <desc>Created with sketchtool.</desc>
    <defs></defs>
    <g id="-Different-Breakpoints" stroke="none" stroke-width="1" fill="none" fill-rule="evenodd">
        <g id="Between-Small-Plus-&amp;-Medium" transform="translate(-84.000000, -842.000000)">
            <g id="Panel-2" transform="translate(-69.000000, 630.000000)">
                <g id="Holistic-icon" transform="translate(153.000000, 212.000000)">
                    <circle id="Oval-3" fill="#0C76BE" cx="70" cy="70" r="70"></circle>
                    <path d="M61.8359715,61.0452056 L61.8359715,55.1967267 C63.0964408,55.3584358 64.216858,55.78966 65.3092648,56.6790601 C65.5053378,56.8407692 65.7574317,56.9216237 65.9815151,56.9216237 C66.5977446,56.9216237 67.0739219,56.4095449 67.0739219,55.8166116 C67.0739219,55.5201449 66.9618802,55.2236782 66.7097863,55.0350176 C65.3372752,53.903054 63.7967016,53.3370721 61.8359715,53.1484115 L61.8359715,51.2618054 C61.8359715,50.8305812 61.4718359,50.4802115 61.023669,50.4802115 C60.4914708,50.4802115 60.1273352,50.8305812 60.1273352,51.2618054 L60.1273352,53.12146 C56.7380732,53.3101206 54.3011658,55.2775813 54.3011658,58.0805389 C54.3011658,61.3955753 57.2702714,62.3119268 60.1273352,63.0665692 L60.1273352,69.642739 C58.3346677,69.4540784 56.8221045,68.6724845 55.7016873,67.7291814 C55.5056143,67.5674723 55.2815308,67.4866178 55.029437,67.4866178 C54.4132075,67.4866178 53.9650406,68.0795511 53.9650406,68.6185814 C53.9650406,68.9150481 54.0770824,69.2115148 54.3291762,69.4271269 C55.7577082,70.6668966 57.7184383,71.5023936 60.1273352,71.6371512 L60.1273352,73.4159512 C60.1273352,73.8471755 60.4914708,74.1975452 61.023669,74.1975452 C61.4718359,74.1975452 61.8359715,73.8471755 61.8359715,73.4159512 L61.8359715,71.6371512 C66.1495777,71.313733 67.7741826,68.8341936 67.7741826,66.3816057 C67.7741826,62.8779086 64.7210458,61.8267995 61.8359715,61.0452056 Z M60.1441415,60.8502563 C58.2394323,60.311226 56.726869,59.6913411 56.726869,58.1820562 C56.726869,56.5919168 58.1273905,55.4869047 60.1441415,55.3521471 L60.1441415,60.8502563 Z M61.7902211,69.8853027 L61.7902211,63.7673086 C63.7509512,64.3332905 65.3195353,65.0609814 65.3195353,66.8128299 C65.3195353,68.0795511 64.4512119,69.6157875 61.7902211,69.8853027 Z" id="$" fill="#FFFFFF"></path>
                    <ellipse id="Oval" stroke="#FFFFFF" stroke-width="4" cx="60.2692441" cy="60.997686" rx="23.4903106" ry="22.602276"></ellipse>
                    <path d="M51.364675,46.8355142 C43.3241042,49.6514073 43.2541702,58.3902157 43.2541702,58.3902157" id="Path-2" stroke="#FFFFFF" stroke-width="2" stroke-linecap="round"></path>
                    <path d="M87.5680196,82.7781056 L80.4822487,89.2669397 L79.2837932,88.1137909 C77.3752826,86.2774303 77.3799395,83.2956206 79.2855163,81.4620827 C81.1949786,79.6248064 84.2945491,79.6283863 86.1985675,81.4604247 L87.5680196,82.7781056 Z M88.9356766,84.0940593 L98.2480851,93.0544187 C100.156596,94.8907794 100.151939,97.8725891 98.2463619,99.7061269 C96.3368997,101.543403 93.2373292,101.539823 91.3333107,99.707785 L81.8499057,90.5828933 L88.9356766,84.0940593 Z" id="Combined-Shape" fill="#FFFFFF"></path>
                </g>
            </g>
        </g>
    </g>
</svg>