<?xml version="1.0" encoding="UTF-8"?>
<svg width="90px" height="28px" viewBox="0 0 90 28" version="1.1" xmlns="http://www.w3.org/2000/svg" xmlns:xlink="http://www.w3.org/1999/xlink">
    <!-- Generator: sketchtool 42 (36781) - http://www.bohemiancoding.com/sketch -->
    <title>45BD1885-8164-4436-9705-FDBA3D105E60</title>
    <desc>Created with sketchtool.</desc>
    <defs></defs>
    <g id="Symbols" stroke="none" stroke-width="1" fill="none" fill-rule="evenodd">
        <g id="Title-bar-IQ-BANK" transform="translate(-16.000000, -16.000000)" fill-rule="nonzero">
            <g id="Money-logo" transform="translate(16.000000, 16.000000)">
                <g id="Page-1">
                    <g id="Money-logo">
                        <path d="M1.71612903,26.2748387 C1.22095402,26.2714537 0.730057585,26.1828479 0.264946237,26.0129032 L0.264946237,20.2713978 L0.824946237,20.172043 L0.824946237,22.7612903 C1.12815695,22.3908515 1.57778232,22.1709857 2.05634409,22.1591398 C2.92344086,22.1591398 3.65806452,22.7913978 3.65806452,24.1221505 C3.65505376,25.5733333 2.82107527,26.2748387 1.71612903,26.2748387 Z M1.99311828,22.6619355 C1.54752688,22.6619355 1.17419355,22.9389247 0.821935484,23.3544086 L0.821935484,25.6486022 C1.1139785,25.7637345 1.42645185,25.8180332 1.74021505,25.808172 C2.53204301,25.808172 3.08903226,25.2933333 3.08903226,24.1552688 C3.09204301,23.1827957 2.6283871,22.6498925 1.99612903,22.6498925 L1.99311828,22.6619355 Z" id="Shape" fill="#58595B"></path>
                        <path d="M5.97032258,26.7445161 C5.69333333,27.5122581 5.32903226,27.7380645 4.76602151,27.7380645 C4.68419422,27.7369841 4.60260821,27.7289262 4.52215054,27.7139785 L4.43784946,27.2172043 C4.54300268,27.2379139 4.64982425,27.2489992 4.75698925,27.2503226 C5.10322581,27.2503226 5.30494624,27.0997849 5.46451613,26.648172 L5.63311828,26.2356989 L4.13376344,22.2795699 L4.68172043,22.1772043 L5.91311828,25.5673118 L7.08430108,22.2283871 L7.66537634,22.2283871 L5.97032258,26.7445161 Z" id="Shape" fill="#58595B"></path>
                        <polygon id="Shape" fill="#58595B" points="10.5978495 26.2236559 10.5978495 20.4068817 13.6326882 20.4068817 13.6326882 20.9367742 11.1819355 20.9367742 11.1819355 22.9178495 13.1208602 22.9178495 13.2051613 23.4417204 11.1819355 23.4417204 11.1819355 25.6937634 13.72 25.6937634 13.72 26.2236559"></polygon>
                        <path d="M17.2275269,26.2236559 L17.2275269,23.483871 C17.2275269,22.9690323 16.9926882,22.6589247 16.4868817,22.6589247 C16.0653763,22.6589247 15.6348387,22.9208602 15.1982796,23.3513978 L15.1982796,26.2236559 L14.6382796,26.2236559 L14.6382796,22.2344086 L15.0688172,22.2344086 L15.1621505,22.8365591 C15.5392657,22.4412192 16.0502734,22.200745 16.5952688,22.1621505 C17.3870968,22.1621505 17.7845161,22.6167742 17.7845161,23.3845161 L17.7845161,26.2236559 L17.2275269,26.2236559 Z" id="Shape" fill="#58595B"></path>
                        <polygon id="Shape" fill="#58595B" points="20.4460215 26.2567742 19.9131183 26.2567742 18.4619355 22.2795699 19.027957 22.1772043 20.1901075 25.5673118 21.3372043 22.2283871 21.9182796 22.2283871"></polygon>
                        <path d="M24.1522581,26.307957 C23.1075269,26.307957 22.3458065,25.6004301 22.3458065,24.2245161 C22.3458065,22.9419355 23.0713978,22.1501075 24.055914,22.1501075 C25.1337634,22.1501075 25.6756989,23.0533333 25.6756989,24.1492473 L25.6756989,24.2666667 L22.9148387,24.2666667 C22.9329032,25.2541935 23.3875269,25.8262366 24.1883871,25.8262366 C24.7159585,25.8048532 25.2173353,25.5905896 25.5974194,25.224086 L25.6817204,25.7298925 C25.2590248,26.101938 24.7153648,26.3074158 24.1522581,26.307957 L24.1522581,26.307957 Z M22.9298925,23.8301075 L25.1126882,23.8301075 C25.0615054,23.1135484 24.7092473,22.5987097 24.0589247,22.5987097 C23.483871,22.5987097 23.0412903,23.0292473 22.9298925,23.8301075 L22.9298925,23.8301075 Z" id="Shape" fill="#58595B"></path>
                        <path d="M27.8645161,26.2989247 C27.3649141,26.2938817 26.8736813,26.1700415 26.4313978,25.9376344 L26.5247312,25.3987097 C26.9387309,25.6700514 27.4208025,25.819264 27.9156989,25.8292473 C28.4726882,25.8292473 28.8189247,25.5944086 28.8189247,25.187957 C28.8189247,24.7815054 28.584086,24.615914 27.7892473,24.4051613 C26.904086,24.1763441 26.5247312,23.8903226 26.5247312,23.2339785 C26.5247312,22.5776344 27.0546237,22.156129 27.8825806,22.156129 C28.3107297,22.1562215 28.7338237,22.2486449 29.1230108,22.4270968 L29.0296774,22.9569892 C28.672425,22.7639137 28.273588,22.6605881 27.8675269,22.655914 C27.3195699,22.655914 27.0576344,22.8907527 27.0576344,23.2219355 C27.0576344,23.5531183 27.2774194,23.7187097 27.9608602,23.8963441 C28.9062366,24.1492473 29.3608602,24.4533333 29.3608602,25.1608602 C29.3608602,25.8683871 28.7827957,26.2989247 27.8645161,26.2989247 Z" id="Shape" fill="#58595B"></path>
                        <path d="M31.5496774,26.2898925 C30.9264516,26.2898925 30.5139785,26.0460215 30.5139785,25.3113978 L30.5139785,22.7070968 L29.911828,22.7070968 L29.911828,22.2344086 L30.5139785,22.2344086 L30.5139785,20.8524731 L31.0619355,20.7591398 L31.0619355,22.2344086 L31.9802151,22.2344086 L32.0554839,22.7070968 L31.0619355,22.7070968 L31.0619355,25.2180645 C31.0619355,25.6215054 31.2215054,25.7991398 31.664086,25.7991398 C31.7884747,25.7952775 31.9123337,25.7811797 32.0344086,25.7569892 L32.1187097,26.2206452 C31.9329742,26.2690271 31.7415957,26.2923165 31.5496774,26.2898925 Z" id="Shape" fill="#58595B"></path>
                        <path d="M35.5449462,26.2236559 L35.5449462,23.483871 C35.5449462,22.9690323 35.3101075,22.6589247 34.8043011,22.6589247 C34.3827957,22.6589247 33.9522581,22.9208602 33.5156989,23.3513978 L33.5156989,26.2236559 L32.9587097,26.2236559 L32.9587097,22.2344086 L33.3892473,22.2344086 L33.4825806,22.8365591 C33.8600279,22.4347456 34.3748639,22.189688 34.9247312,22.1501075 C35.7165591,22.1501075 36.1139785,22.6047312 36.1139785,23.3724731 L36.1139785,26.2236559 L35.5449462,26.2236559 Z" id="Shape" fill="#58595B"></path>
                        <path d="M38.8597849,26.307957 C37.8150538,26.307957 37.0533333,25.6004301 37.0533333,24.2245161 C37.0533333,22.9419355 37.7789247,22.1501075 38.7634409,22.1501075 C39.8412903,22.1501075 40.3832258,23.0533333 40.3832258,24.1492473 L40.3832258,24.2666667 L37.6344086,24.2666667 C37.6524731,25.2541935 38.1070968,25.8262366 38.907957,25.8262366 C39.4355285,25.8048532 39.9369052,25.5905896 40.3169892,25.224086 L40.4012903,25.7298925 C39.9754835,26.1046861 39.4270378,26.3103532 38.8597849,26.307957 L38.8597849,26.307957 Z M37.6344086,23.8301075 L39.8172043,23.8301075 C39.7660215,23.1135484 39.4137634,22.5987097 38.7634409,22.5987097 C38.1853763,22.5987097 37.7488172,23.0292473 37.6344086,23.8301075 Z" id="Shape" fill="#58595B"></path>
                        <polygon id="Shape" fill="#58595B" points="46.25 27.4899993 46.25 19.8843062 46.75 19.7999992 46.75 27.4056923"></polygon>
                        <path d="M42.56,26.2898925 C41.9367742,26.2898925 41.5243011,26.0460215 41.5243011,25.3113978 L41.5243011,22.7070968 L40.9221505,22.7070968 L40.9221505,22.2344086 L41.5243011,22.2344086 L41.5243011,20.8524731 L42.0722581,20.7591398 L42.0722581,22.2344086 L42.9905376,22.2344086 L43.0658065,22.7070968 L42.0722581,22.7070968 L42.0722581,25.2180645 C42.0722581,25.6215054 42.231828,25.7991398 42.6744086,25.7991398 C42.7987972,25.7952775 42.9226563,25.7811797 43.0447312,25.7569892 L43.1290323,26.2206452 C42.9432968,26.2690271 42.7519183,26.2923165 42.56,26.2898925 Z" id="Shape" fill="#58595B"></path>
                        <polygon id="Shape" fill="#58595B" points="51.9415054 23.812043 51.9415054 26.2206452 51.3604301 26.2206452 51.3604301 23.812043 49.304086 20.4731183 49.9062366 20.3556989 51.6675269 23.2972043 53.3776344 20.4129032 54.0339785 20.4129032"></polygon>
                        <path d="M55.7470968,26.307957 C54.7264516,26.307957 53.9587097,25.5492473 53.9587097,24.2335484 C53.9587097,22.9178495 54.7415054,22.1501075 55.7470968,22.1501075 C56.7526882,22.1501075 57.5535484,22.9088172 57.5535484,24.2335484 C57.5535484,25.5582796 56.7677419,26.307957 55.7470968,26.307957 Z M55.7470968,22.6227957 C55.0064516,22.6227957 54.5247312,23.2249462 54.5247312,24.2335484 C54.5247312,25.2421505 55.0215054,25.8352688 55.7470968,25.8352688 C56.4726882,25.8352688 56.9875269,25.2331183 56.9875269,24.2335484 C56.9875269,23.2339785 56.4967742,22.6227957 55.7470968,22.6227957 Z" id="Shape" fill="#58595B"></path>
                        <path d="M61.32,26.2236559 L61.2176344,25.6425806 C60.9172546,26.0522395 60.4429467,26.2983008 59.9350538,26.307957 C59.0589247,26.307957 58.3243011,25.6847312 58.3243011,24.3449462 C58.3243011,22.8877419 59.1763441,22.1772043 60.1307527,22.1772043 C60.4863446,22.1706952 60.8392948,22.2394385 61.1664516,22.3789247 L61.1664516,20.2713978 L61.7234409,20.1690323 L61.7234409,26.2236559 L61.32,26.2236559 Z M61.1845161,22.8817204 C60.8699867,22.717433 60.518572,22.6365765 60.163871,22.6468817 C59.4473118,22.6468817 58.8903226,23.1858065 58.8903226,24.3088172 C58.8903226,25.2782796 59.3539785,25.8141935 59.9862366,25.8141935 C60.4589247,25.8141935 60.8292473,25.5131183 61.1905376,25.0976344 L61.1845161,22.8817204 Z" id="Shape" fill="#58595B"></path>
                        <polygon id="Shape" fill="#58595B" points="62.9789247 26.2236559 62.9789247 20.2713978 63.5268817 20.172043 63.5268817 26.2236559"></polygon>
                        <path d="M66.3509677,26.307957 C65.3062366,26.307957 64.5445161,25.6004301 64.5445161,24.2245161 C64.5445161,22.9419355 65.2701075,22.1501075 66.2546237,22.1501075 C67.3324731,22.1501075 67.8744086,23.0533333 67.8744086,24.1492473 L67.8744086,24.2666667 L65.1015054,24.2666667 C65.1195699,25.2541935 65.5741935,25.8262366 66.3750538,25.8262366 C66.9026252,25.8048532 67.404002,25.5905896 67.784086,25.224086 L67.8683871,25.7298925 C67.4488104,26.0992139 66.909923,26.3045042 66.3509677,26.307957 L66.3509677,26.307957 Z M65.1286022,23.8301075 L67.3113978,23.8301075 C67.2602151,23.1135484 66.907957,22.5987097 66.2576344,22.5987097 C65.6765591,22.5987097 65.2369892,23.0292473 65.1286022,23.8301075 L65.1286022,23.8301075 Z" id="Shape" fill="#58595B"></path>
                        <path d="M70.4516129,26.307957 C69.4068817,26.307957 68.6451613,25.6004301 68.6451613,24.2245161 C68.6451613,22.9419355 69.3707527,22.1501075 70.3552688,22.1501075 C71.4331183,22.1501075 71.9750538,23.0533333 71.9750538,24.1492473 L71.9750538,24.2666667 L69.2021505,24.2666667 C69.2202151,25.2541935 69.6748387,25.8262366 70.4756989,25.8262366 C71.0032704,25.8048532 71.5046471,25.5905896 71.8847312,25.224086 L71.9690323,25.7298925 C71.5494556,26.0992139 71.0105682,26.3045042 70.4516129,26.307957 L70.4516129,26.307957 Z M69.2473118,23.8301075 L71.4301075,23.8301075 C71.3789247,23.1135484 71.0266667,22.5987097 70.3763441,22.5987097 C69.7862366,22.5987097 69.3496774,23.0292473 69.2473118,23.8301075 Z" id="Shape" fill="#58595B"></path>
                        <path d="M19.8709677,17.1883871 L19.8709677,6.34967742 C19.8709677,4.90150538 19.3651613,3.91397849 17.8567742,3.91397849 C16.5862366,3.91397849 15.3849462,4.73892473 14.1836559,5.97333333 L14.1836559,17.1883871 L10.0649462,17.1883871 L10.0649462,6.34967742 C10.0649462,4.90752688 9.51698925,3.91397849 8.0055914,3.91397849 C6.73505376,3.91397849 5.53376344,4.73892473 4.33247312,5.97333333 L4.33247312,17.1883871 L0.213763441,17.1883871 L0.213763441,0.602150538 L3.71526882,0.602150538 L4.0916129,2.93548387 C5.63612903,1.46021505 7.31913978,0.258924731 9.55010753,0.258924731 C11.9195699,0.258924731 13.1870968,1.32172043 13.8073118,2.93548387 C15.2825806,1.46021505 17.1010753,0.258924731 19.332043,0.258924731 C22.4541935,0.258924731 23.9987097,2.14666667 23.9987097,5.23569892 L23.9987097,17.1883871 L19.8709677,17.1883871 Z" id="Shape" fill="#0069AA"></path>
                        <path d="M33.6180645,17.5316129 C29.1230108,17.5316129 25.8623656,14.304086 25.8623656,8.91784946 C25.8623656,3.5316129 29.156129,0.267956989 33.6511828,0.267956989 C38.1462366,0.267956989 41.4791398,3.52860215 41.4791398,8.91784946 C41.4791398,14.3070968 38.1462366,17.5316129 33.6180645,17.5316129 Z M33.6180645,3.63096774 C31.1823656,3.63096774 29.8756989,5.8288172 29.8756989,8.91784946 C29.8756989,11.9286022 31.2154839,14.1686022 33.6180645,14.1686022 C36.1591398,14.1686022 37.4627957,12.0068817 37.4627957,8.91784946 C37.4627957,5.8288172 36.0868817,3.63096774 33.6180645,3.63096774 L33.6180645,3.63096774 Z" id="Shape" fill="#0069AA"></path>
                        <path d="M53.3535484,17.1883871 L53.3535484,6.34967742 C53.3535484,4.90752688 52.7363441,3.91397849 51.2249462,3.91397849 C49.9212903,3.91397849 48.6507527,4.73892473 47.4494624,6.02150538 L47.4494624,17.1883871 L43.3307527,17.1883871 L43.3307527,0.602150538 L46.8322581,0.602150538 L47.2086022,2.93548387 C48.7531183,1.46021505 50.5023656,0.258924731 52.7333333,0.258924731 C55.8223656,0.258924731 57.4692473,2.14666667 57.4692473,5.23569892 L57.4692473,17.1883871 L53.3535484,17.1883871 Z" id="Shape" fill="#0069AA"></path>
                        <path d="M67.3926882,17.5316129 C62.7591398,17.5316129 59.2937634,14.888172 59.2937634,8.91784946 C59.2937634,3.52860215 62.5212903,0.267956989 66.8447312,0.267956989 C71.8215054,0.267956989 74.0524731,4.01032258 74.0524731,8.69806452 C74.0524731,9.04129032 74.0193548,9.45376344 74.0193548,9.69462366 L63.3432258,9.69462366 C63.547957,12.9552688 65.3002151,14.328172 67.8382796,14.328172 C69.9668817,14.328172 71.716129,13.5393548 73.5346237,12.2688172 L74.0163441,15.4963441 C72.0752025,16.8498781 69.758948,17.5615999 67.3926882,17.5316129 L67.3926882,17.5316129 Z M63.4124731,7.13247312 L70.036129,7.13247312 C69.7621505,4.55827957 68.7324731,3.11612903 66.7423656,3.11612903 C65.0954839,3.11612903 63.7225806,4.45591398 63.4124731,7.13247312 Z" id="Shape" fill="#0069AA"></path>
                        <path d="M83.3978495,18.2511828 C81.991828,22.2313978 80.067957,23.4326882 77.0752688,23.4326882 C76.5089297,23.4567815 75.9420787,23.3989809 75.3922581,23.2610753 L74.8443011,19.7956989 C75.4331131,19.9557049 76.0405875,20.0367015 76.6507527,20.0365591 C77.9544086,20.0365591 78.9148387,19.4886022 79.568172,17.9290323 L79.8090323,17.2425806 L73.7875269,0.906236559 L78.0778495,0.35827957 L81.9225806,12.1303226 L85.5866667,0.602150538 L89.7384946,0.602150538 L83.3978495,18.2511828 Z" id="Shape" fill="#0069AA"></path>
                    </g>
                </g>
            </g>
        </g>
    </g>
</svg>